<svg xmlns="http://www.w3.org/2000/svg" viewBox="0 0 470 168" font-family="'Segoe UI', system-ui, -apple-system, Roboto, Helvetica, Arial, sans-serif">
<rect width="470" height="168" fill="#100e0a"/>
<rect x="6" y="6" width="458" height="156" fill="none" stroke="#e8a317" stroke-width="2"/>
<rect x="11" y="11" width="448" height="146" fill="none" stroke="#e8a317" stroke-width="1"/>
<text x="192" y="42" fill="#8a7a5c" font-size="12" text-anchor="end">glm-5.2 &#183; 5 runs &#183; 30 steps</text>
<text x="268" y="42" fill="#ece0c8" font-size="13.5" font-weight="700" text-anchor="middle" letter-spacing="1">BEFORE</text>
<text x="388" y="42" fill="#ece0c8" font-size="13.5" font-weight="700" text-anchor="middle" letter-spacing="1">AFTER</text>
<line x1="328" y1="50" x2="328" y2="138" stroke="#2a2213" stroke-width="1"/>
<text x="192" y="82" fill="#ece0c8" font-size="12" text-anchor="end">SQL INJECTION</text>
<rect x="204" y="70" width="17" height="17" fill="#e8a317" stroke="#100e0a" stroke-width="1"/>
<rect x="226" y="70" width="17" height="17" fill="#1c160e" stroke="#4a3c22" stroke-width="1"/>
<rect x="246" y="70" width="17" height="17" fill="#1c160e" stroke="#4a3c22" stroke-width="1"/>
<rect x="268" y="70" width="17" height="17" fill="#1c160e" stroke="#4a3c22" stroke-width="1"/>
<rect x="288" y="70" width="17" height="17" fill="#1c160e" stroke="#4a3c22" stroke-width="1"/>
<text x="314" y="82" fill="#ffcf5c" font-size="12">1</text>
<rect x="324" y="70" width="17" height="17" fill="#e8a317" stroke="#100e0a" stroke-width="1"/>
<rect x="346" y="70" width="17" height="17" fill="#e8a317" stroke="#100e0a" stroke-width="1"/>
<rect x="366" y="70" width="17" height="17" fill="#e8a317" stroke="#100e0a" stroke-width="1"/>
<rect x="388" y="70" width="17" height="17" fill="#e8a317" stroke="#100e0a" stroke-width="1"/>
<rect x="408" y="70" width="17" height="17" fill="#1c160e" stroke="#4a3c22" stroke-width="1"/>
<text x="434" y="82" fill="#ffcf5c" font-size="12">4</text>
<text x="192" y="122" fill="#ece0c8" font-size="12" text-anchor="end">JWT / AUTH BYPASS</text>
<rect x="204" y="110" width="17" height="17" fill="#e8a317" stroke="#100e0a" stroke-width="1"/>
<rect x="226" y="110" width="17" height="17" fill="#1c160e" stroke="#4a3c22" stroke-width="1"/>
<rect x="246" y="110" width="17" height="17" fill="#1c160e" stroke="#4a3c22" stroke-width="1"/>
<rect x="268" y="110" width="17" height="17" fill="#1c160e" stroke="#4a3c22" stroke-width="1"/>
<rect x="288" y="110" width="17" height="17" fill="#1c160e" stroke="#4a3c22" stroke-width="1"/>
<text x="314" y="122" fill="#ffcf5c" font-size="12">1</text>
<rect x="324" y="110" width="17" height="17" fill="#e8a317" stroke="#100e0a" stroke-width="1"/>
<rect x="346" y="110" width="17" height="17" fill="#e8a317" stroke="#100e0a" stroke-width="1"/>
<rect x="366" y="110" width="17" height="17" fill="#e8a317" stroke="#100e0a" stroke-width="1"/>
<rect x="388" y="110" width="17" height="17" fill="#e8a317" stroke="#100e0a" stroke-width="1"/>
<rect x="408" y="110" width="17" height="17" fill="#1c160e" stroke="#4a3c22" stroke-width="1"/>
<text x="434" y="122" fill="#ffcf5c" font-size="12">4</text>
</svg>