<svg xmlns="http://www.w3.org/2000/svg" viewBox="0 0 760 518" font-family="ui-monospace, 'Courier New', monospace">
<rect width="760" height="518" fill="#100e0a"/>
<rect x="6" y="6" width="748" height="506" fill="none" stroke="#e8a317" stroke-width="2"/>
<rect x="11" y="11" width="738" height="496" fill="none" stroke="#e8a317" stroke-width="1"/>
<text x="380" y="40" fill="#ffcf5c" font-size="20" font-weight="bold" text-anchor="middle" letter-spacing="3">DVGA DETECTION RATE</text>
<text x="380" y="61" fill="#8a7a5c" font-size="11.5" text-anchor="middle" letter-spacing="1.5">5 RUNS @ BUDGET 30  ::  RUNS (OF 5) IN WHICH EACH CATEGORY WAS FOUND</text>
<rect x="233" y="79" width="13" height="12" fill="none" stroke="#b9770c" stroke-width="1.6"/>
<text x="255" y="90" fill="#ece0c8" font-size="12.5">qwen/qwen3.7-max  (6.0/run)</text>
<rect x="532" y="78" width="15" height="14" fill="#e8a317" stroke="#100e0a" stroke-width="1"/>
<text x="555" y="90" fill="#ece0c8" font-size="12.5">z-ai/glm-5.2  (7.4/run)</text>
<line x1="232" y1="108" x2="232" y2="460" stroke="#332813" stroke-width="1"/>
<text x="232" y="479" fill="#8a7a5c" font-size="11" text-anchor="middle">0</text>
<line x1="327" y1="108" x2="327" y2="460" stroke="#332813" stroke-width="1"/>
<text x="327" y="479" fill="#8a7a5c" font-size="11" text-anchor="middle">1</text>
<line x1="422" y1="108" x2="422" y2="460" stroke="#332813" stroke-width="1"/>
<text x="422" y="479" fill="#8a7a5c" font-size="11" text-anchor="middle">2</text>
<line x1="516" y1="108" x2="516" y2="460" stroke="#332813" stroke-width="1"/>
<text x="516" y="479" fill="#8a7a5c" font-size="11" text-anchor="middle">3</text>
<line x1="611" y1="108" x2="611" y2="460" stroke="#332813" stroke-width="1"/>
<text x="611" y="479" fill="#8a7a5c" font-size="11" text-anchor="middle">4</text>
<line x1="706" y1="108" x2="706" y2="460" stroke="#332813" stroke-width="1"/>
<text x="706" y="479" fill="#8a7a5c" font-size="11" text-anchor="middle">5</text>
<text x="469" y="500" fill="#8a7a5c" font-size="11" text-anchor="middle" letter-spacing="1">DETECTIONS (OUT OF 5 RUNS)</text>
<text x="218" y="132" fill="#ece0c8" font-size="12" text-anchor="end" letter-spacing="0.5">OS COMMAND INJECTION</text>
<rect x="233" y="115" width="93" height="12" fill="none" stroke="#b9770c" stroke-width="1.6"/>
<text x="334" y="126" fill="#8a7a5c" font-size="11">1</text>
<rect x="232" y="134" width="474" height="14" fill="#e8a317" stroke="#100e0a" stroke-width="1"/>
<text x="713" y="146" fill="#ffcf5c" font-size="11">5</text>
<text x="218" y="176" fill="#ece0c8" font-size="12" text-anchor="end" letter-spacing="0.5">SQL INJECTION</text>
<rect x="233" y="159" width="93" height="12" fill="none" stroke="#b9770c" stroke-width="1.6"/>
<text x="334" y="170" fill="#8a7a5c" font-size="11">1</text>
<rect x="232" y="178" width="95" height="14" fill="#e8a317" stroke="#100e0a" stroke-width="1"/>
<text x="334" y="190" fill="#ffcf5c" font-size="11">1</text>
<text x="218" y="220" fill="#ece0c8" font-size="12" text-anchor="end" letter-spacing="0.5">BROKEN ACCESS (BOLA/BFLA)</text>
<rect x="233" y="203" width="282" height="12" fill="none" stroke="#b9770c" stroke-width="1.6"/>
<text x="523" y="214" fill="#8a7a5c" font-size="11">3</text>
<rect x="232" y="222" width="474" height="14" fill="#e8a317" stroke="#100e0a" stroke-width="1"/>
<text x="713" y="234" fill="#ffcf5c" font-size="11">5</text>
<text x="218" y="264" fill="#ece0c8" font-size="12" text-anchor="end" letter-spacing="0.5">JWT / AUTH BYPASS</text>
<rect x="232" y="266" width="95" height="14" fill="#e8a317" stroke="#100e0a" stroke-width="1"/>
<text x="334" y="278" fill="#ffcf5c" font-size="11">1</text>
<text x="218" y="308" fill="#ece0c8" font-size="12" text-anchor="end" letter-spacing="0.5">BLIND SSRF (OOB)</text>
<rect x="233" y="291" width="377" height="12" fill="none" stroke="#b9770c" stroke-width="1.6"/>
<text x="618" y="302" fill="#8a7a5c" font-size="11">4</text>
<rect x="232" y="310" width="474" height="14" fill="#e8a317" stroke="#100e0a" stroke-width="1"/>
<text x="713" y="322" fill="#ffcf5c" font-size="11">5</text>
<text x="218" y="352" fill="#ece0c8" font-size="12" text-anchor="end" letter-spacing="0.5">BATCH-QUERY DOS</text>
<rect x="233" y="335" width="472" height="12" fill="none" stroke="#b9770c" stroke-width="1.6"/>
<text x="713" y="346" fill="#8a7a5c" font-size="11">5</text>
<rect x="232" y="354" width="474" height="14" fill="#e8a317" stroke="#100e0a" stroke-width="1"/>
<text x="713" y="366" fill="#ffcf5c" font-size="11">5</text>
<text x="218" y="396" fill="#ece0c8" font-size="12" text-anchor="end" letter-spacing="0.5">STACK-TRACE LEAK</text>
<rect x="233" y="379" width="472" height="12" fill="none" stroke="#b9770c" stroke-width="1.6"/>
<text x="713" y="390" fill="#8a7a5c" font-size="11">5</text>
<rect x="232" y="398" width="284" height="14" fill="#e8a317" stroke="#100e0a" stroke-width="1"/>
<text x="523" y="410" fill="#ffcf5c" font-size="11">3</text>
<text x="218" y="440" fill="#ece0c8" font-size="12" text-anchor="end" letter-spacing="0.5">INTROSPECTION</text>
<rect x="233" y="423" width="472" height="12" fill="none" stroke="#b9770c" stroke-width="1.6"/>
<text x="713" y="434" fill="#8a7a5c" font-size="11">5</text>
<rect x="232" y="442" width="474" height="14" fill="#e8a317" stroke="#100e0a" stroke-width="1"/>
<text x="713" y="454" fill="#ffcf5c" font-size="11">5</text>
</svg>