<svg xmlns="http://www.w3.org/2000/svg" viewBox="0 0 726 428" font-family="'Segoe UI', system-ui, -apple-system, Roboto, Helvetica, Arial, sans-serif">
<rect width="726" height="428" fill="#100e0a"/>
<rect x="6" y="6" width="714" height="416" fill="none" stroke="#e8a317" stroke-width="2"/>
<rect x="11" y="11" width="704" height="406" fill="none" stroke="#e8a317" stroke-width="1"/>
<text x="316" y="46" fill="#ece0c8" font-size="14.5" font-weight="700" text-anchor="middle">qwen 3.7-max</text>
<text x="316" y="67" fill="#e8a317" font-size="12.5" font-weight="600" text-anchor="middle">6.0 findings / run</text>
<text x="316" y="84" fill="#8a7a5c" font-size="11.5" text-anchor="middle">236k tokens / run</text>
<text x="471" y="46" fill="#ece0c8" font-size="14.5" font-weight="700" text-anchor="middle">glm-5.2</text>
<text x="471" y="67" fill="#e8a317" font-size="12.5" font-weight="600" text-anchor="middle">7.4 findings / run</text>
<text x="471" y="84" fill="#8a7a5c" font-size="11.5" text-anchor="middle">242k tokens / run</text>
<text x="626" y="46" fill="#ece0c8" font-size="14.5" font-weight="700" text-anchor="middle">gpt-oss-120b</text>
<text x="626" y="67" fill="#e8a317" font-size="12.5" font-weight="600" text-anchor="middle">4.8 findings / run</text>
<text x="626" y="84" fill="#8a7a5c" font-size="11.5" text-anchor="middle">232k tokens / run</text>
<line x1="393" y1="92" x2="393" y2="388" stroke="#2a2213" stroke-width="1"/>
<line x1="549" y1="92" x2="549" y2="388" stroke="#2a2213" stroke-width="1"/>
<text x="222" y="122" fill="#ece0c8" font-size="12" text-anchor="end">OS COMMAND INJECTION</text>
<rect x="252" y="110" width="17" height="17" fill="#e8a317" stroke="#100e0a" stroke-width="1"/>
<rect x="273" y="110" width="17" height="17" fill="#1c160e" stroke="#4a3c22" stroke-width="1"/>
<rect x="294" y="110" width="17" height="17" fill="#1c160e" stroke="#4a3c22" stroke-width="1"/>
<rect x="315" y="110" width="17" height="17" fill="#1c160e" stroke="#4a3c22" stroke-width="1"/>
<rect x="336" y="110" width="17" height="17" fill="#1c160e" stroke="#4a3c22" stroke-width="1"/>
<text x="361" y="122" fill="#ffcf5c" font-size="12">1</text>
<rect x="408" y="110" width="17" height="17" fill="#e8a317" stroke="#100e0a" stroke-width="1"/>
<rect x="429" y="110" width="17" height="17" fill="#e8a317" stroke="#100e0a" stroke-width="1"/>
<rect x="450" y="110" width="17" height="17" fill="#e8a317" stroke="#100e0a" stroke-width="1"/>
<rect x="471" y="110" width="17" height="17" fill="#e8a317" stroke="#100e0a" stroke-width="1"/>
<rect x="492" y="110" width="17" height="17" fill="#e8a317" stroke="#100e0a" stroke-width="1"/>
<text x="516" y="122" fill="#ffcf5c" font-size="12">5</text>
<rect x="563" y="110" width="17" height="17" fill="#e8a317" stroke="#100e0a" stroke-width="1"/>
<rect x="584" y="110" width="17" height="17" fill="#1c160e" stroke="#4a3c22" stroke-width="1"/>
<rect x="605" y="110" width="17" height="17" fill="#1c160e" stroke="#4a3c22" stroke-width="1"/>
<rect x="626" y="110" width="17" height="17" fill="#1c160e" stroke="#4a3c22" stroke-width="1"/>
<rect x="647" y="110" width="17" height="17" fill="#1c160e" stroke="#4a3c22" stroke-width="1"/>
<text x="672" y="122" fill="#ffcf5c" font-size="12">1</text>
<text x="222" y="158" fill="#ece0c8" font-size="12" text-anchor="end">BROKEN ACCESS (BOLA/BFLA)</text>
<rect x="252" y="146" width="17" height="17" fill="#e8a317" stroke="#100e0a" stroke-width="1"/>
<rect x="273" y="146" width="17" height="17" fill="#e8a317" stroke="#100e0a" stroke-width="1"/>
<rect x="294" y="146" width="17" height="17" fill="#e8a317" stroke="#100e0a" stroke-width="1"/>
<rect x="315" y="146" width="17" height="17" fill="#1c160e" stroke="#4a3c22" stroke-width="1"/>
<rect x="336" y="146" width="17" height="17" fill="#1c160e" stroke="#4a3c22" stroke-width="1"/>
<text x="361" y="158" fill="#ffcf5c" font-size="12">3</text>
<rect x="408" y="146" width="17" height="17" fill="#e8a317" stroke="#100e0a" stroke-width="1"/>
<rect x="429" y="146" width="17" height="17" fill="#e8a317" stroke="#100e0a" stroke-width="1"/>
<rect x="450" y="146" width="17" height="17" fill="#e8a317" stroke="#100e0a" stroke-width="1"/>
<rect x="471" y="146" width="17" height="17" fill="#e8a317" stroke="#100e0a" stroke-width="1"/>
<rect x="492" y="146" width="17" height="17" fill="#e8a317" stroke="#100e0a" stroke-width="1"/>
<text x="516" y="158" fill="#ffcf5c" font-size="12">5</text>
<rect x="563" y="146" width="17" height="17" fill="#e8a317" stroke="#100e0a" stroke-width="1"/>
<rect x="584" y="146" width="17" height="17" fill="#e8a317" stroke="#100e0a" stroke-width="1"/>
<rect x="605" y="146" width="17" height="17" fill="#1c160e" stroke="#4a3c22" stroke-width="1"/>
<rect x="626" y="146" width="17" height="17" fill="#1c160e" stroke="#4a3c22" stroke-width="1"/>
<rect x="647" y="146" width="17" height="17" fill="#1c160e" stroke="#4a3c22" stroke-width="1"/>
<text x="672" y="158" fill="#ffcf5c" font-size="12">2</text>
<text x="222" y="194" fill="#ece0c8" font-size="12" text-anchor="end">BLIND SSRF (OOB)</text>
<rect x="252" y="182" width="17" height="17" fill="#e8a317" stroke="#100e0a" stroke-width="1"/>
<rect x="273" y="182" width="17" height="17" fill="#e8a317" stroke="#100e0a" stroke-width="1"/>
<rect x="294" y="182" width="17" height="17" fill="#e8a317" stroke="#100e0a" stroke-width="1"/>
<rect x="315" y="182" width="17" height="17" fill="#e8a317" stroke="#100e0a" stroke-width="1"/>
<rect x="336" y="182" width="17" height="17" fill="#1c160e" stroke="#4a3c22" stroke-width="1"/>
<text x="361" y="194" fill="#ffcf5c" font-size="12">4</text>
<rect x="408" y="182" width="17" height="17" fill="#e8a317" stroke="#100e0a" stroke-width="1"/>
<rect x="429" y="182" width="17" height="17" fill="#e8a317" stroke="#100e0a" stroke-width="1"/>
<rect x="450" y="182" width="17" height="17" fill="#e8a317" stroke="#100e0a" stroke-width="1"/>
<rect x="471" y="182" width="17" height="17" fill="#e8a317" stroke="#100e0a" stroke-width="1"/>
<rect x="492" y="182" width="17" height="17" fill="#e8a317" stroke="#100e0a" stroke-width="1"/>
<text x="516" y="194" fill="#ffcf5c" font-size="12">5</text>
<rect x="563" y="182" width="17" height="17" fill="#e8a317" stroke="#100e0a" stroke-width="1"/>
<rect x="584" y="182" width="17" height="17" fill="#1c160e" stroke="#4a3c22" stroke-width="1"/>
<rect x="605" y="182" width="17" height="17" fill="#1c160e" stroke="#4a3c22" stroke-width="1"/>
<rect x="626" y="182" width="17" height="17" fill="#1c160e" stroke="#4a3c22" stroke-width="1"/>
<rect x="647" y="182" width="17" height="17" fill="#1c160e" stroke="#4a3c22" stroke-width="1"/>
<text x="672" y="194" fill="#ffcf5c" font-size="12">1</text>
<text x="222" y="230" fill="#ece0c8" font-size="12" text-anchor="end">SQL INJECTION</text>
<rect x="252" y="218" width="17" height="17" fill="#e8a317" stroke="#100e0a" stroke-width="1"/>
<rect x="273" y="218" width="17" height="17" fill="#1c160e" stroke="#4a3c22" stroke-width="1"/>
<rect x="294" y="218" width="17" height="17" fill="#1c160e" stroke="#4a3c22" stroke-width="1"/>
<rect x="315" y="218" width="17" height="17" fill="#1c160e" stroke="#4a3c22" stroke-width="1"/>
<rect x="336" y="218" width="17" height="17" fill="#1c160e" stroke="#4a3c22" stroke-width="1"/>
<text x="361" y="230" fill="#ffcf5c" font-size="12">1</text>
<rect x="408" y="218" width="17" height="17" fill="#e8a317" stroke="#100e0a" stroke-width="1"/>
<rect x="429" y="218" width="17" height="17" fill="#1c160e" stroke="#4a3c22" stroke-width="1"/>
<rect x="450" y="218" width="17" height="17" fill="#1c160e" stroke="#4a3c22" stroke-width="1"/>
<rect x="471" y="218" width="17" height="17" fill="#1c160e" stroke="#4a3c22" stroke-width="1"/>
<rect x="492" y="218" width="17" height="17" fill="#1c160e" stroke="#4a3c22" stroke-width="1"/>
<text x="516" y="230" fill="#ffcf5c" font-size="12">1</text>
<rect x="563" y="218" width="17" height="17" fill="#1c160e" stroke="#4a3c22" stroke-width="1"/>
<rect x="584" y="218" width="17" height="17" fill="#1c160e" stroke="#4a3c22" stroke-width="1"/>
<rect x="605" y="218" width="17" height="17" fill="#1c160e" stroke="#4a3c22" stroke-width="1"/>
<rect x="626" y="218" width="17" height="17" fill="#1c160e" stroke="#4a3c22" stroke-width="1"/>
<rect x="647" y="218" width="17" height="17" fill="#1c160e" stroke="#4a3c22" stroke-width="1"/>
<text x="672" y="230" fill="#8a7a5c" font-size="12">0</text>
<text x="222" y="266" fill="#ece0c8" font-size="12" text-anchor="end">JWT / AUTH BYPASS</text>
<rect x="252" y="254" width="17" height="17" fill="#1c160e" stroke="#4a3c22" stroke-width="1"/>
<rect x="273" y="254" width="17" height="17" fill="#1c160e" stroke="#4a3c22" stroke-width="1"/>
<rect x="294" y="254" width="17" height="17" fill="#1c160e" stroke="#4a3c22" stroke-width="1"/>
<rect x="315" y="254" width="17" height="17" fill="#1c160e" stroke="#4a3c22" stroke-width="1"/>
<rect x="336" y="254" width="17" height="17" fill="#1c160e" stroke="#4a3c22" stroke-width="1"/>
<text x="361" y="266" fill="#8a7a5c" font-size="12">0</text>
<rect x="408" y="254" width="17" height="17" fill="#e8a317" stroke="#100e0a" stroke-width="1"/>
<rect x="429" y="254" width="17" height="17" fill="#1c160e" stroke="#4a3c22" stroke-width="1"/>
<rect x="450" y="254" width="17" height="17" fill="#1c160e" stroke="#4a3c22" stroke-width="1"/>
<rect x="471" y="254" width="17" height="17" fill="#1c160e" stroke="#4a3c22" stroke-width="1"/>
<rect x="492" y="254" width="17" height="17" fill="#1c160e" stroke="#4a3c22" stroke-width="1"/>
<text x="516" y="266" fill="#ffcf5c" font-size="12">1</text>
<rect x="563" y="254" width="17" height="17" fill="#1c160e" stroke="#4a3c22" stroke-width="1"/>
<rect x="584" y="254" width="17" height="17" fill="#1c160e" stroke="#4a3c22" stroke-width="1"/>
<rect x="605" y="254" width="17" height="17" fill="#1c160e" stroke="#4a3c22" stroke-width="1"/>
<rect x="626" y="254" width="17" height="17" fill="#1c160e" stroke="#4a3c22" stroke-width="1"/>
<rect x="647" y="254" width="17" height="17" fill="#1c160e" stroke="#4a3c22" stroke-width="1"/>
<text x="672" y="266" fill="#8a7a5c" font-size="12">0</text>
<text x="222" y="302" fill="#ece0c8" font-size="12" text-anchor="end">STACK-TRACE LEAK</text>
<rect x="252" y="290" width="17" height="17" fill="#e8a317" stroke="#100e0a" stroke-width="1"/>
<rect x="273" y="290" width="17" height="17" fill="#e8a317" stroke="#100e0a" stroke-width="1"/>
<rect x="294" y="290" width="17" height="17" fill="#e8a317" stroke="#100e0a" stroke-width="1"/>
<rect x="315" y="290" width="17" height="17" fill="#e8a317" stroke="#100e0a" stroke-width="1"/>
<rect x="336" y="290" width="17" height="17" fill="#e8a317" stroke="#100e0a" stroke-width="1"/>
<text x="361" y="302" fill="#ffcf5c" font-size="12">5</text>
<rect x="408" y="290" width="17" height="17" fill="#e8a317" stroke="#100e0a" stroke-width="1"/>
<rect x="429" y="290" width="17" height="17" fill="#e8a317" stroke="#100e0a" stroke-width="1"/>
<rect x="450" y="290" width="17" height="17" fill="#e8a317" stroke="#100e0a" stroke-width="1"/>
<rect x="471" y="290" width="17" height="17" fill="#1c160e" stroke="#4a3c22" stroke-width="1"/>
<rect x="492" y="290" width="17" height="17" fill="#1c160e" stroke="#4a3c22" stroke-width="1"/>
<text x="516" y="302" fill="#ffcf5c" font-size="12">3</text>
<rect x="563" y="290" width="17" height="17" fill="#e8a317" stroke="#100e0a" stroke-width="1"/>
<rect x="584" y="290" width="17" height="17" fill="#e8a317" stroke="#100e0a" stroke-width="1"/>
<rect x="605" y="290" width="17" height="17" fill="#e8a317" stroke="#100e0a" stroke-width="1"/>
<rect x="626" y="290" width="17" height="17" fill="#e8a317" stroke="#100e0a" stroke-width="1"/>
<rect x="647" y="290" width="17" height="17" fill="#e8a317" stroke="#100e0a" stroke-width="1"/>
<text x="672" y="302" fill="#ffcf5c" font-size="12">5</text>
<text x="222" y="338" fill="#ece0c8" font-size="12" text-anchor="end">BATCH-QUERY DOS</text>
<rect x="252" y="326" width="17" height="17" fill="#e8a317" stroke="#100e0a" stroke-width="1"/>
<rect x="273" y="326" width="17" height="17" fill="#e8a317" stroke="#100e0a" stroke-width="1"/>
<rect x="294" y="326" width="17" height="17" fill="#e8a317" stroke="#100e0a" stroke-width="1"/>
<rect x="315" y="326" width="17" height="17" fill="#e8a317" stroke="#100e0a" stroke-width="1"/>
<rect x="336" y="326" width="17" height="17" fill="#e8a317" stroke="#100e0a" stroke-width="1"/>
<text x="361" y="338" fill="#ffcf5c" font-size="12">5</text>
<rect x="408" y="326" width="17" height="17" fill="#e8a317" stroke="#100e0a" stroke-width="1"/>
<rect x="429" y="326" width="17" height="17" fill="#e8a317" stroke="#100e0a" stroke-width="1"/>
<rect x="450" y="326" width="17" height="17" fill="#e8a317" stroke="#100e0a" stroke-width="1"/>
<rect x="471" y="326" width="17" height="17" fill="#e8a317" stroke="#100e0a" stroke-width="1"/>
<rect x="492" y="326" width="17" height="17" fill="#e8a317" stroke="#100e0a" stroke-width="1"/>
<text x="516" y="338" fill="#ffcf5c" font-size="12">5</text>
<rect x="563" y="326" width="17" height="17" fill="#e8a317" stroke="#100e0a" stroke-width="1"/>
<rect x="584" y="326" width="17" height="17" fill="#e8a317" stroke="#100e0a" stroke-width="1"/>
<rect x="605" y="326" width="17" height="17" fill="#e8a317" stroke="#100e0a" stroke-width="1"/>
<rect x="626" y="326" width="17" height="17" fill="#e8a317" stroke="#100e0a" stroke-width="1"/>
<rect x="647" y="326" width="17" height="17" fill="#e8a317" stroke="#100e0a" stroke-width="1"/>
<text x="672" y="338" fill="#ffcf5c" font-size="12">5</text>
<text x="222" y="374" fill="#ece0c8" font-size="12" text-anchor="end">INTROSPECTION</text>
<rect x="252" y="362" width="17" height="17" fill="#e8a317" stroke="#100e0a" stroke-width="1"/>
<rect x="273" y="362" width="17" height="17" fill="#e8a317" stroke="#100e0a" stroke-width="1"/>
<rect x="294" y="362" width="17" height="17" fill="#e8a317" stroke="#100e0a" stroke-width="1"/>
<rect x="315" y="362" width="17" height="17" fill="#e8a317" stroke="#100e0a" stroke-width="1"/>
<rect x="336" y="362" width="17" height="17" fill="#e8a317" stroke="#100e0a" stroke-width="1"/>
<text x="361" y="374" fill="#ffcf5c" font-size="12">5</text>
<rect x="408" y="362" width="17" height="17" fill="#e8a317" stroke="#100e0a" stroke-width="1"/>
<rect x="429" y="362" width="17" height="17" fill="#e8a317" stroke="#100e0a" stroke-width="1"/>
<rect x="450" y="362" width="17" height="17" fill="#e8a317" stroke="#100e0a" stroke-width="1"/>
<rect x="471" y="362" width="17" height="17" fill="#e8a317" stroke="#100e0a" stroke-width="1"/>
<rect x="492" y="362" width="17" height="17" fill="#e8a317" stroke="#100e0a" stroke-width="1"/>
<text x="516" y="374" fill="#ffcf5c" font-size="12">5</text>
<rect x="563" y="362" width="17" height="17" fill="#e8a317" stroke="#100e0a" stroke-width="1"/>
<rect x="584" y="362" width="17" height="17" fill="#e8a317" stroke="#100e0a" stroke-width="1"/>
<rect x="605" y="362" width="17" height="17" fill="#e8a317" stroke="#100e0a" stroke-width="1"/>
<rect x="626" y="362" width="17" height="17" fill="#e8a317" stroke="#100e0a" stroke-width="1"/>
<rect x="647" y="362" width="17" height="17" fill="#e8a317" stroke="#100e0a" stroke-width="1"/>
<text x="672" y="374" fill="#ffcf5c" font-size="12">5</text>
</svg>