<svg class="rich-terminal" viewBox="0 0 1848 1074.8" xmlns="http://www.w3.org/2000/svg">
    <!-- Generated with Rich https://www.textualize.io -->
    <style>

    @font-face {
        font-family: "Fira Code";
        src: local("FiraCode-Regular"),
                url("https://cdnjs.cloudflare.com/ajax/libs/firacode/6.2.0/woff2/FiraCode-Regular.woff2") format("woff2"),
                url("https://cdnjs.cloudflare.com/ajax/libs/firacode/6.2.0/woff/FiraCode-Regular.woff") format("woff");
        font-style: normal;
        font-weight: 400;
    }
    @font-face {
        font-family: "Fira Code";
        src: local("FiraCode-Bold"),
                url("https://cdnjs.cloudflare.com/ajax/libs/firacode/6.2.0/woff2/FiraCode-Bold.woff2") format("woff2"),
                url("https://cdnjs.cloudflare.com/ajax/libs/firacode/6.2.0/woff/FiraCode-Bold.woff") format("woff");
        font-style: bold;
        font-weight: 700;
    }

    .terminal-243272454-matrix {
        font-family: Fira Code, monospace;
        font-size: 20px;
        line-height: 24.4px;
        font-variant-east-asian: full-width;
    }

    .terminal-243272454-title {
        font-size: 18px;
        font-weight: bold;
        font-family: arial;
    }

    .terminal-243272454-r1 { fill: #c5c8c6 }
.terminal-243272454-r2 { fill: #0a0700;font-weight: bold }
.terminal-243272454-r3 { fill: #9d9b99 }
.terminal-243272454-r4 { fill: #0a0700 }
.terminal-243272454-r5 { fill: #110700 }
.terminal-243272454-r6 { fill: #e8cfa0 }
.terminal-243272454-r7 { fill: #000000 }
.terminal-243272454-r8 { fill: #251f1a }
.terminal-243272454-r9 { fill: #ffee58 }
.terminal-243272454-r10 { fill: #e8cfa0;font-weight: bold }
.terminal-243272454-r11 { fill: #211600;font-weight: bold }
.terminal-243272454-r12 { fill: #b87500 }
    </style>

    <defs>
    <clipPath id="terminal-243272454-clip-terminal">
      <rect x="0" y="0" width="1829.0" height="1023.8" />
    </clipPath>
    <clipPath id="terminal-243272454-line-0">
    <rect x="0" y="1.5" width="1830" height="24.65"/>
            </clipPath>
<clipPath id="terminal-243272454-line-1">
    <rect x="0" y="25.9" width="1830" height="24.65"/>
            </clipPath>
<clipPath id="terminal-243272454-line-2">
    <rect x="0" y="50.3" width="1830" height="24.65"/>
            </clipPath>
<clipPath id="terminal-243272454-line-3">
    <rect x="0" y="74.7" width="1830" height="24.65"/>
            </clipPath>
<clipPath id="terminal-243272454-line-4">
    <rect x="0" y="99.1" width="1830" height="24.65"/>
            </clipPath>
<clipPath id="terminal-243272454-line-5">
    <rect x="0" y="123.5" width="1830" height="24.65"/>
            </clipPath>
<clipPath id="terminal-243272454-line-6">
    <rect x="0" y="147.9" width="1830" height="24.65"/>
            </clipPath>
<clipPath id="terminal-243272454-line-7">
    <rect x="0" y="172.3" width="1830" height="24.65"/>
            </clipPath>
<clipPath id="terminal-243272454-line-8">
    <rect x="0" y="196.7" width="1830" height="24.65"/>
            </clipPath>
<clipPath id="terminal-243272454-line-9">
    <rect x="0" y="221.1" width="1830" height="24.65"/>
            </clipPath>
<clipPath id="terminal-243272454-line-10">
    <rect x="0" y="245.5" width="1830" height="24.65"/>
            </clipPath>
<clipPath id="terminal-243272454-line-11">
    <rect x="0" y="269.9" width="1830" height="24.65"/>
            </clipPath>
<clipPath id="terminal-243272454-line-12">
    <rect x="0" y="294.3" width="1830" height="24.65"/>
            </clipPath>
<clipPath id="terminal-243272454-line-13">
    <rect x="0" y="318.7" width="1830" height="24.65"/>
            </clipPath>
<clipPath id="terminal-243272454-line-14">
    <rect x="0" y="343.1" width="1830" height="24.65"/>
            </clipPath>
<clipPath id="terminal-243272454-line-15">
    <rect x="0" y="367.5" width="1830" height="24.65"/>
            </clipPath>
<clipPath id="terminal-243272454-line-16">
    <rect x="0" y="391.9" width="1830" height="24.65"/>
            </clipPath>
<clipPath id="terminal-243272454-line-17">
    <rect x="0" y="416.3" width="1830" height="24.65"/>
            </clipPath>
<clipPath id="terminal-243272454-line-18">
    <rect x="0" y="440.7" width="1830" height="24.65"/>
            </clipPath>
<clipPath id="terminal-243272454-line-19">
    <rect x="0" y="465.1" width="1830" height="24.65"/>
            </clipPath>
<clipPath id="terminal-243272454-line-20">
    <rect x="0" y="489.5" width="1830" height="24.65"/>
            </clipPath>
<clipPath id="terminal-243272454-line-21">
    <rect x="0" y="513.9" width="1830" height="24.65"/>
            </clipPath>
<clipPath id="terminal-243272454-line-22">
    <rect x="0" y="538.3" width="1830" height="24.65"/>
            </clipPath>
<clipPath id="terminal-243272454-line-23">
    <rect x="0" y="562.7" width="1830" height="24.65"/>
            </clipPath>
<clipPath id="terminal-243272454-line-24">
    <rect x="0" y="587.1" width="1830" height="24.65"/>
            </clipPath>
<clipPath id="terminal-243272454-line-25">
    <rect x="0" y="611.5" width="1830" height="24.65"/>
            </clipPath>
<clipPath id="terminal-243272454-line-26">
    <rect x="0" y="635.9" width="1830" height="24.65"/>
            </clipPath>
<clipPath id="terminal-243272454-line-27">
    <rect x="0" y="660.3" width="1830" height="24.65"/>
            </clipPath>
<clipPath id="terminal-243272454-line-28">
    <rect x="0" y="684.7" width="1830" height="24.65"/>
            </clipPath>
<clipPath id="terminal-243272454-line-29">
    <rect x="0" y="709.1" width="1830" height="24.65"/>
            </clipPath>
<clipPath id="terminal-243272454-line-30">
    <rect x="0" y="733.5" width="1830" height="24.65"/>
            </clipPath>
<clipPath id="terminal-243272454-line-31">
    <rect x="0" y="757.9" width="1830" height="24.65"/>
            </clipPath>
<clipPath id="terminal-243272454-line-32">
    <rect x="0" y="782.3" width="1830" height="24.65"/>
            </clipPath>
<clipPath id="terminal-243272454-line-33">
    <rect x="0" y="806.7" width="1830" height="24.65"/>
            </clipPath>
<clipPath id="terminal-243272454-line-34">
    <rect x="0" y="831.1" width="1830" height="24.65"/>
            </clipPath>
<clipPath id="terminal-243272454-line-35">
    <rect x="0" y="855.5" width="1830" height="24.65"/>
            </clipPath>
<clipPath id="terminal-243272454-line-36">
    <rect x="0" y="879.9" width="1830" height="24.65"/>
            </clipPath>
<clipPath id="terminal-243272454-line-37">
    <rect x="0" y="904.3" width="1830" height="24.65"/>
            </clipPath>
<clipPath id="terminal-243272454-line-38">
    <rect x="0" y="928.7" width="1830" height="24.65"/>
            </clipPath>
<clipPath id="terminal-243272454-line-39">
    <rect x="0" y="953.1" width="1830" height="24.65"/>
            </clipPath>
<clipPath id="terminal-243272454-line-40">
    <rect x="0" y="977.5" width="1830" height="24.65"/>
            </clipPath>
    </defs>

    <rect fill="#292929" stroke="rgba(255,255,255,0.35)" stroke-width="1" x="1" y="1" width="1846" height="1072.8" rx="8"/><text class="terminal-243272454-title" fill="#c5c8c6" text-anchor="middle" x="923" y="27">GradientQL</text>
            <g transform="translate(26,22)">
            <circle cx="0" cy="0" r="7" fill="#ff5f57"/>
            <circle cx="22" cy="0" r="7" fill="#febc2e"/>
            <circle cx="44" cy="0" r="7" fill="#28c840"/>
            </g>
        
    <g transform="translate(9, 41)" clip-path="url(#terminal-243272454-clip-terminal)">
    <rect fill="#feb000" x="0" y="1.5" width="12.2" height="24.65" shape-rendering="crispEdges"/><rect fill="#feb000" x="12.2" y="1.5" width="256.2" height="24.65" shape-rendering="crispEdges"/><rect fill="#feb000" x="268.4" y="1.5" width="1549.4" height="24.65" shape-rendering="crispEdges"/><rect fill="#feb000" x="1817.8" y="1.5" width="12.2" height="24.65" shape-rendering="crispEdges"/><rect fill="#0a0700" x="0" y="25.9" width="1830" height="24.65" shape-rendering="crispEdges"/><rect fill="#0a0700" x="0" y="50.3" width="24.4" height="24.65" shape-rendering="crispEdges"/><rect fill="#0a0700" x="24.4" y="50.3" width="122" height="24.65" shape-rendering="crispEdges"/><rect fill="#0a0700" x="146.4" y="50.3" width="1634.8" height="24.65" shape-rendering="crispEdges"/><rect fill="#664600" x="1781.2" y="50.3" width="24.4" height="24.65" shape-rendering="crispEdges"/><rect fill="#0a0700" x="1805.6" y="50.3" width="24.4" height="24.65" shape-rendering="crispEdges"/><rect fill="#0a0700" x="0" y="74.7" width="24.4" height="24.65" shape-rendering="crispEdges"/><rect fill="#110700" x="24.4" y="74.7" width="12.2" height="24.65" shape-rendering="crispEdges"/><rect fill="#171008" x="36.6" y="74.7" width="1732.4" height="24.65" shape-rendering="crispEdges"/><rect fill="#0a0700" x="1769" y="74.7" width="12.2" height="24.65" shape-rendering="crispEdges"/><rect fill="#664600" x="1781.2" y="74.7" width="24.4" height="24.65" shape-rendering="crispEdges"/><rect fill="#0a0700" x="1805.6" y="74.7" width="24.4" height="24.65" shape-rendering="crispEdges"/><rect fill="#0a0700" x="0" y="99.1" width="24.4" height="24.65" shape-rendering="crispEdges"/><rect fill="#110700" x="24.4" y="99.1" width="12.2" height="24.65" shape-rendering="crispEdges"/><rect fill="#171008" x="36.6" y="99.1" width="24.4" height="24.65" shape-rendering="crispEdges"/><rect fill="#171008" x="61" y="99.1" width="390.4" height="24.65" shape-rendering="crispEdges"/><rect fill="#171008" x="451.4" y="99.1" width="1293.2" height="24.65" shape-rendering="crispEdges"/><rect fill="#171008" x="1744.6" y="99.1" width="24.4" height="24.65" shape-rendering="crispEdges"/><rect fill="#0a0700" x="1769" y="99.1" width="12.2" height="24.65" shape-rendering="crispEdges"/><rect fill="#664600" x="1781.2" y="99.1" width="24.4" height="24.65" shape-rendering="crispEdges"/><rect fill="#0a0700" x="1805.6" y="99.1" width="24.4" height="24.65" shape-rendering="crispEdges"/><rect fill="#0a0700" x="0" y="123.5" width="24.4" height="24.65" shape-rendering="crispEdges"/><rect fill="#110700" x="24.4" y="123.5" width="12.2" height="24.65" shape-rendering="crispEdges"/><rect fill="#171008" x="36.6" y="123.5" width="1732.4" height="24.65" shape-rendering="crispEdges"/><rect fill="#0a0700" x="1769" y="123.5" width="12.2" height="24.65" shape-rendering="crispEdges"/><rect fill="#664600" x="1781.2" y="123.5" width="24.4" height="24.65" shape-rendering="crispEdges"/><rect fill="#0a0700" x="1805.6" y="123.5" width="24.4" height="24.65" shape-rendering="crispEdges"/><rect fill="#0a0700" x="0" y="147.9" width="24.4" height="24.65" shape-rendering="crispEdges"/><rect fill="#0a0700" x="24.4" y="147.9" width="1756.8" height="24.65" shape-rendering="crispEdges"/><rect fill="#664600" x="1781.2" y="147.9" width="24.4" height="24.65" shape-rendering="crispEdges"/><rect fill="#0a0700" x="1805.6" y="147.9" width="24.4" height="24.65" shape-rendering="crispEdges"/><rect fill="#0a0700" x="0" y="172.3" width="24.4" height="24.65" shape-rendering="crispEdges"/><rect fill="#0a0700" x="24.4" y="172.3" width="170.8" height="24.65" shape-rendering="crispEdges"/><rect fill="#0a0700" x="195.2" y="172.3" width="1586" height="24.65" shape-rendering="crispEdges"/><rect fill="#664600" x="1781.2" y="172.3" width="24.4" height="24.65" shape-rendering="crispEdges"/><rect fill="#0a0700" x="1805.6" y="172.3" width="24.4" height="24.65" shape-rendering="crispEdges"/><rect fill="#0a0700" x="0" y="196.7" width="24.4" height="24.65" shape-rendering="crispEdges"/><rect fill="#110700" x="24.4" y="196.7" width="12.2" height="24.65" shape-rendering="crispEdges"/><rect fill="#171008" x="36.6" y="196.7" width="1732.4" height="24.65" shape-rendering="crispEdges"/><rect fill="#0a0700" x="1769" y="196.7" width="12.2" height="24.65" shape-rendering="crispEdges"/><rect fill="#664600" x="1781.2" y="196.7" width="24.4" height="24.65" shape-rendering="crispEdges"/><rect fill="#0a0700" x="1805.6" y="196.7" width="24.4" height="24.65" shape-rendering="crispEdges"/><rect fill="#0a0700" x="0" y="221.1" width="24.4" height="24.65" shape-rendering="crispEdges"/><rect fill="#110700" x="24.4" y="221.1" width="12.2" height="24.65" shape-rendering="crispEdges"/><rect fill="#171008" x="36.6" y="221.1" width="24.4" height="24.65" shape-rendering="crispEdges"/><rect fill="#171008" x="61" y="221.1" width="24.4" height="24.65" shape-rendering="crispEdges"/><rect fill="#171008" x="85.4" y="221.1" width="1659.2" height="24.65" shape-rendering="crispEdges"/><rect fill="#171008" x="1744.6" y="221.1" width="24.4" height="24.65" shape-rendering="crispEdges"/><rect fill="#0a0700" x="1769" y="221.1" width="12.2" height="24.65" shape-rendering="crispEdges"/><rect fill="#664600" x="1781.2" y="221.1" width="24.4" height="24.65" shape-rendering="crispEdges"/><rect fill="#0a0700" x="1805.6" y="221.1" width="24.4" height="24.65" shape-rendering="crispEdges"/><rect fill="#0a0700" x="0" y="245.5" width="24.4" height="24.65" shape-rendering="crispEdges"/><rect fill="#110700" x="24.4" y="245.5" width="12.2" height="24.65" shape-rendering="crispEdges"/><rect fill="#171008" x="36.6" y="245.5" width="1732.4" height="24.65" shape-rendering="crispEdges"/><rect fill="#0a0700" x="1769" y="245.5" width="12.2" height="24.65" shape-rendering="crispEdges"/><rect fill="#664600" x="1781.2" y="245.5" width="24.4" height="24.65" shape-rendering="crispEdges"/><rect fill="#0a0700" x="1805.6" y="245.5" width="24.4" height="24.65" shape-rendering="crispEdges"/><rect fill="#0a0700" x="0" y="269.9" width="24.4" height="24.65" shape-rendering="crispEdges"/><rect fill="#0a0700" x="24.4" y="269.9" width="1756.8" height="24.65" shape-rendering="crispEdges"/><rect fill="#664600" x="1781.2" y="269.9" width="24.4" height="24.65" shape-rendering="crispEdges"/><rect fill="#0a0700" x="1805.6" y="269.9" width="24.4" height="24.65" shape-rendering="crispEdges"/><rect fill="#0a0700" x="0" y="294.3" width="24.4" height="24.65" shape-rendering="crispEdges"/><rect fill="#0a0700" x="24.4" y="294.3" width="61" height="24.65" shape-rendering="crispEdges"/><rect fill="#0a0700" x="85.4" y="294.3" width="1695.8" height="24.65" shape-rendering="crispEdges"/><rect fill="#664600" x="1781.2" y="294.3" width="24.4" height="24.65" shape-rendering="crispEdges"/><rect fill="#0a0700" x="1805.6" y="294.3" width="24.4" height="24.65" shape-rendering="crispEdges"/><rect fill="#0a0700" x="0" y="318.7" width="24.4" height="24.65" shape-rendering="crispEdges"/><rect fill="#110700" x="24.4" y="318.7" width="12.2" height="24.65" shape-rendering="crispEdges"/><rect fill="#171008" x="36.6" y="318.7" width="1732.4" height="24.65" shape-rendering="crispEdges"/><rect fill="#0a0700" x="1769" y="318.7" width="12.2" height="24.65" shape-rendering="crispEdges"/><rect fill="#664600" x="1781.2" y="318.7" width="24.4" height="24.65" shape-rendering="crispEdges"/><rect fill="#0a0700" x="1805.6" y="318.7" width="24.4" height="24.65" shape-rendering="crispEdges"/><rect fill="#0a0700" x="0" y="343.1" width="24.4" height="24.65" shape-rendering="crispEdges"/><rect fill="#110700" x="24.4" y="343.1" width="12.2" height="24.65" shape-rendering="crispEdges"/><rect fill="#171008" x="36.6" y="343.1" width="24.4" height="24.65" shape-rendering="crispEdges"/><rect fill="#171008" x="61" y="343.1" width="195.2" height="24.65" shape-rendering="crispEdges"/><rect fill="#171008" x="256.2" y="343.1" width="1488.4" height="24.65" shape-rendering="crispEdges"/><rect fill="#171008" x="1744.6" y="343.1" width="24.4" height="24.65" shape-rendering="crispEdges"/><rect fill="#0a0700" x="1769" y="343.1" width="12.2" height="24.65" shape-rendering="crispEdges"/><rect fill="#664600" x="1781.2" y="343.1" width="24.4" height="24.65" shape-rendering="crispEdges"/><rect fill="#0a0700" x="1805.6" y="343.1" width="24.4" height="24.65" shape-rendering="crispEdges"/><rect fill="#0a0700" x="0" y="367.5" width="24.4" height="24.65" shape-rendering="crispEdges"/><rect fill="#110700" x="24.4" y="367.5" width="12.2" height="24.65" shape-rendering="crispEdges"/><rect fill="#171008" x="36.6" y="367.5" width="1732.4" height="24.65" shape-rendering="crispEdges"/><rect fill="#0a0700" x="1769" y="367.5" width="12.2" height="24.65" shape-rendering="crispEdges"/><rect fill="#664600" x="1781.2" y="367.5" width="24.4" height="24.65" shape-rendering="crispEdges"/><rect fill="#0a0700" x="1805.6" y="367.5" width="24.4" height="24.65" shape-rendering="crispEdges"/><rect fill="#0a0700" x="0" y="391.9" width="24.4" height="24.65" shape-rendering="crispEdges"/><rect fill="#0a0700" x="24.4" y="391.9" width="1756.8" height="24.65" shape-rendering="crispEdges"/><rect fill="#664600" x="1781.2" y="391.9" width="24.4" height="24.65" shape-rendering="crispEdges"/><rect fill="#0a0700" x="1805.6" y="391.9" width="24.4" height="24.65" shape-rendering="crispEdges"/><rect fill="#0a0700" x="0" y="416.3" width="24.4" height="24.65" shape-rendering="crispEdges"/><rect fill="#0a0700" x="24.4" y="416.3" width="292.8" height="24.65" shape-rendering="crispEdges"/><rect fill="#0a0700" x="317.2" y="416.3" width="1464" height="24.65" shape-rendering="crispEdges"/><rect fill="#664600" x="1781.2" y="416.3" width="24.4" height="24.65" shape-rendering="crispEdges"/><rect fill="#0a0700" x="1805.6" y="416.3" width="24.4" height="24.65" shape-rendering="crispEdges"/><rect fill="#0a0700" x="0" y="440.7" width="24.4" height="24.65" shape-rendering="crispEdges"/><rect fill="#110700" x="24.4" y="440.7" width="12.2" height="24.65" shape-rendering="crispEdges"/><rect fill="#171008" x="36.6" y="440.7" width="1732.4" height="24.65" shape-rendering="crispEdges"/><rect fill="#0a0700" x="1769" y="440.7" width="12.2" height="24.65" shape-rendering="crispEdges"/><rect fill="#664600" x="1781.2" y="440.7" width="24.4" height="24.65" shape-rendering="crispEdges"/><rect fill="#0a0700" x="1805.6" y="440.7" width="24.4" height="24.65" shape-rendering="crispEdges"/><rect fill="#0a0700" x="0" y="465.1" width="24.4" height="24.65" shape-rendering="crispEdges"/><rect fill="#110700" x="24.4" y="465.1" width="12.2" height="24.65" shape-rendering="crispEdges"/><rect fill="#171008" x="36.6" y="465.1" width="24.4" height="24.65" shape-rendering="crispEdges"/><rect fill="#171008" x="61" y="465.1" width="1683.6" height="24.65" shape-rendering="crispEdges"/><rect fill="#171008" x="1744.6" y="465.1" width="24.4" height="24.65" shape-rendering="crispEdges"/><rect fill="#0a0700" x="1769" y="465.1" width="12.2" height="24.65" shape-rendering="crispEdges"/><rect fill="#664600" x="1781.2" y="465.1" width="24.4" height="24.65" shape-rendering="crispEdges"/><rect fill="#0a0700" x="1805.6" y="465.1" width="24.4" height="24.65" shape-rendering="crispEdges"/><rect fill="#0a0700" x="0" y="489.5" width="24.4" height="24.65" shape-rendering="crispEdges"/><rect fill="#110700" x="24.4" y="489.5" width="12.2" height="24.65" shape-rendering="crispEdges"/><rect fill="#171008" x="36.6" y="489.5" width="1732.4" height="24.65" shape-rendering="crispEdges"/><rect fill="#0a0700" x="1769" y="489.5" width="12.2" height="24.65" shape-rendering="crispEdges"/><rect fill="#664600" x="1781.2" y="489.5" width="24.4" height="24.65" shape-rendering="crispEdges"/><rect fill="#0a0700" x="1805.6" y="489.5" width="24.4" height="24.65" shape-rendering="crispEdges"/><rect fill="#0a0700" x="0" y="513.9" width="24.4" height="24.65" shape-rendering="crispEdges"/><rect fill="#0a0700" x="24.4" y="513.9" width="1756.8" height="24.65" shape-rendering="crispEdges"/><rect fill="#664600" x="1781.2" y="513.9" width="24.4" height="24.65" shape-rendering="crispEdges"/><rect fill="#0a0700" x="1805.6" y="513.9" width="24.4" height="24.65" shape-rendering="crispEdges"/><rect fill="#0a0700" x="0" y="538.3" width="24.4" height="24.65" shape-rendering="crispEdges"/><rect fill="#0a0700" x="24.4" y="538.3" width="207.4" height="24.65" shape-rendering="crispEdges"/><rect fill="#0a0700" x="231.8" y="538.3" width="1549.4" height="24.65" shape-rendering="crispEdges"/><rect fill="#664600" x="1781.2" y="538.3" width="24.4" height="24.65" shape-rendering="crispEdges"/><rect fill="#0a0700" x="1805.6" y="538.3" width="24.4" height="24.65" shape-rendering="crispEdges"/><rect fill="#0a0700" x="0" y="562.7" width="24.4" height="24.65" shape-rendering="crispEdges"/><rect fill="#110700" x="24.4" y="562.7" width="12.2" height="24.65" shape-rendering="crispEdges"/><rect fill="#171008" x="36.6" y="562.7" width="1732.4" height="24.65" shape-rendering="crispEdges"/><rect fill="#0a0700" x="1769" y="562.7" width="12.2" height="24.65" shape-rendering="crispEdges"/><rect fill="#664600" x="1781.2" y="562.7" width="24.4" height="24.65" shape-rendering="crispEdges"/><rect fill="#0a0700" x="1805.6" y="562.7" width="24.4" height="24.65" shape-rendering="crispEdges"/><rect fill="#0a0700" x="0" y="587.1" width="24.4" height="24.65" shape-rendering="crispEdges"/><rect fill="#110700" x="24.4" y="587.1" width="12.2" height="24.65" shape-rendering="crispEdges"/><rect fill="#171008" x="36.6" y="587.1" width="24.4" height="24.65" shape-rendering="crispEdges"/><rect fill="#171008" x="61" y="587.1" width="1683.6" height="24.65" shape-rendering="crispEdges"/><rect fill="#171008" x="1744.6" y="587.1" width="24.4" height="24.65" shape-rendering="crispEdges"/><rect fill="#0a0700" x="1769" y="587.1" width="12.2" height="24.65" shape-rendering="crispEdges"/><rect fill="#664600" x="1781.2" y="587.1" width="24.4" height="24.65" shape-rendering="crispEdges"/><rect fill="#0a0700" x="1805.6" y="587.1" width="24.4" height="24.65" shape-rendering="crispEdges"/><rect fill="#0a0700" x="0" y="611.5" width="24.4" height="24.65" shape-rendering="crispEdges"/><rect fill="#110700" x="24.4" y="611.5" width="12.2" height="24.65" shape-rendering="crispEdges"/><rect fill="#171008" x="36.6" y="611.5" width="1732.4" height="24.65" shape-rendering="crispEdges"/><rect fill="#0a0700" x="1769" y="611.5" width="12.2" height="24.65" shape-rendering="crispEdges"/><rect fill="#664600" x="1781.2" y="611.5" width="24.4" height="24.65" shape-rendering="crispEdges"/><rect fill="#0a0700" x="1805.6" y="611.5" width="24.4" height="24.65" shape-rendering="crispEdges"/><rect fill="#0a0700" x="0" y="635.9" width="24.4" height="24.65" shape-rendering="crispEdges"/><rect fill="#0a0700" x="24.4" y="635.9" width="1756.8" height="24.65" shape-rendering="crispEdges"/><rect fill="#664600" x="1781.2" y="635.9" width="24.4" height="24.65" shape-rendering="crispEdges"/><rect fill="#0a0700" x="1805.6" y="635.9" width="24.4" height="24.65" shape-rendering="crispEdges"/><rect fill="#0a0700" x="0" y="660.3" width="24.4" height="24.65" shape-rendering="crispEdges"/><rect fill="#0a0700" x="24.4" y="660.3" width="231.8" height="24.65" shape-rendering="crispEdges"/><rect fill="#0a0700" x="256.2" y="660.3" width="1525" height="24.65" shape-rendering="crispEdges"/><rect fill="#664600" x="1781.2" y="660.3" width="24.4" height="24.65" shape-rendering="crispEdges"/><rect fill="#0a0700" x="1805.6" y="660.3" width="24.4" height="24.65" shape-rendering="crispEdges"/><rect fill="#0a0700" x="0" y="684.7" width="24.4" height="24.65" shape-rendering="crispEdges"/><rect fill="#110700" x="24.4" y="684.7" width="12.2" height="24.65" shape-rendering="crispEdges"/><rect fill="#171008" x="36.6" y="684.7" width="1732.4" height="24.65" shape-rendering="crispEdges"/><rect fill="#0a0700" x="1769" y="684.7" width="12.2" height="24.65" shape-rendering="crispEdges"/><rect fill="#664600" x="1781.2" y="684.7" width="24.4" height="24.65" shape-rendering="crispEdges"/><rect fill="#0a0700" x="1805.6" y="684.7" width="24.4" height="24.65" shape-rendering="crispEdges"/><rect fill="#0a0700" x="0" y="709.1" width="24.4" height="24.65" shape-rendering="crispEdges"/><rect fill="#110700" x="24.4" y="709.1" width="12.2" height="24.65" shape-rendering="crispEdges"/><rect fill="#171008" x="36.6" y="709.1" width="24.4" height="24.65" shape-rendering="crispEdges"/><rect fill="#171008" x="61" y="709.1" width="1683.6" height="24.65" shape-rendering="crispEdges"/><rect fill="#171008" x="1744.6" y="709.1" width="24.4" height="24.65" shape-rendering="crispEdges"/><rect fill="#0a0700" x="1769" y="709.1" width="12.2" height="24.65" shape-rendering="crispEdges"/><rect fill="#000000" x="1781.2" y="709.1" width="24.4" height="24.65" shape-rendering="crispEdges"/><rect fill="#0a0700" x="1805.6" y="709.1" width="24.4" height="24.65" shape-rendering="crispEdges"/><rect fill="#0a0700" x="0" y="733.5" width="24.4" height="24.65" shape-rendering="crispEdges"/><rect fill="#110700" x="24.4" y="733.5" width="12.2" height="24.65" shape-rendering="crispEdges"/><rect fill="#171008" x="36.6" y="733.5" width="1732.4" height="24.65" shape-rendering="crispEdges"/><rect fill="#0a0700" x="1769" y="733.5" width="12.2" height="24.65" shape-rendering="crispEdges"/><rect fill="#000000" x="1781.2" y="733.5" width="24.4" height="24.65" shape-rendering="crispEdges"/><rect fill="#0a0700" x="1805.6" y="733.5" width="24.4" height="24.65" shape-rendering="crispEdges"/><rect fill="#0a0700" x="0" y="757.9" width="24.4" height="24.65" shape-rendering="crispEdges"/><rect fill="#0a0700" x="24.4" y="757.9" width="1756.8" height="24.65" shape-rendering="crispEdges"/><rect fill="#000000" x="1781.2" y="757.9" width="24.4" height="24.65" shape-rendering="crispEdges"/><rect fill="#0a0700" x="1805.6" y="757.9" width="24.4" height="24.65" shape-rendering="crispEdges"/><rect fill="#0a0700" x="0" y="782.3" width="24.4" height="24.65" shape-rendering="crispEdges"/><rect fill="#0a0700" x="24.4" y="782.3" width="207.4" height="24.65" shape-rendering="crispEdges"/><rect fill="#0a0700" x="231.8" y="782.3" width="1549.4" height="24.65" shape-rendering="crispEdges"/><rect fill="#000000" x="1781.2" y="782.3" width="24.4" height="24.65" shape-rendering="crispEdges"/><rect fill="#0a0700" x="1805.6" y="782.3" width="24.4" height="24.65" shape-rendering="crispEdges"/><rect fill="#0a0700" x="0" y="806.7" width="24.4" height="24.65" shape-rendering="crispEdges"/><rect fill="#110700" x="24.4" y="806.7" width="12.2" height="24.65" shape-rendering="crispEdges"/><rect fill="#171008" x="36.6" y="806.7" width="1732.4" height="24.65" shape-rendering="crispEdges"/><rect fill="#0a0700" x="1769" y="806.7" width="12.2" height="24.65" shape-rendering="crispEdges"/><rect fill="#000000" x="1781.2" y="806.7" width="24.4" height="24.65" shape-rendering="crispEdges"/><rect fill="#0a0700" x="1805.6" y="806.7" width="24.4" height="24.65" shape-rendering="crispEdges"/><rect fill="#0a0700" x="0" y="831.1" width="24.4" height="24.65" shape-rendering="crispEdges"/><rect fill="#110700" x="24.4" y="831.1" width="12.2" height="24.65" shape-rendering="crispEdges"/><rect fill="#171008" x="36.6" y="831.1" width="24.4" height="24.65" shape-rendering="crispEdges"/><rect fill="#171008" x="61" y="831.1" width="1683.6" height="24.65" shape-rendering="crispEdges"/><rect fill="#171008" x="1744.6" y="831.1" width="24.4" height="24.65" shape-rendering="crispEdges"/><rect fill="#0a0700" x="1769" y="831.1" width="12.2" height="24.65" shape-rendering="crispEdges"/><rect fill="#000000" x="1781.2" y="831.1" width="24.4" height="24.65" shape-rendering="crispEdges"/><rect fill="#0a0700" x="1805.6" y="831.1" width="24.4" height="24.65" shape-rendering="crispEdges"/><rect fill="#0a0700" x="0" y="855.5" width="1830" height="24.65" shape-rendering="crispEdges"/><rect fill="#0a0700" x="0" y="879.9" width="1830" height="24.65" shape-rendering="crispEdges"/><rect fill="#0a0700" x="0" y="904.3" width="24.4" height="24.65" shape-rendering="crispEdges"/><rect fill="#171008" x="24.4" y="904.3" width="195.2" height="24.65" shape-rendering="crispEdges"/><rect fill="#0a0700" x="219.6" y="904.3" width="24.4" height="24.65" shape-rendering="crispEdges"/><rect fill="#feb000" x="244" y="904.3" width="195.2" height="24.65" shape-rendering="crispEdges"/><rect fill="#0a0700" x="439.2" y="904.3" width="1366.4" height="24.65" shape-rendering="crispEdges"/><rect fill="#0a0700" x="1805.6" y="904.3" width="24.4" height="24.65" shape-rendering="crispEdges"/><rect fill="#0a0700" x="0" y="928.7" width="24.4" height="24.65" shape-rendering="crispEdges"/><rect fill="#171008" x="24.4" y="928.7" width="36.6" height="24.65" shape-rendering="crispEdges"/><rect fill="#171008" x="61" y="928.7" width="109.8" height="24.65" shape-rendering="crispEdges"/><rect fill="#171008" x="170.8" y="928.7" width="48.8" height="24.65" shape-rendering="crispEdges"/><rect fill="#0a0700" x="219.6" y="928.7" width="24.4" height="24.65" shape-rendering="crispEdges"/><rect fill="#feb000" x="244" y="928.7" width="61" height="24.65" shape-rendering="crispEdges"/><rect fill="#feb000" x="305" y="928.7" width="73.2" height="24.65" shape-rendering="crispEdges"/><rect fill="#feb000" x="378.2" y="928.7" width="61" height="24.65" shape-rendering="crispEdges"/><rect fill="#0a0700" x="439.2" y="928.7" width="1366.4" height="24.65" shape-rendering="crispEdges"/><rect fill="#0a0700" x="1805.6" y="928.7" width="24.4" height="24.65" shape-rendering="crispEdges"/><rect fill="#0a0700" x="0" y="953.1" width="24.4" height="24.65" shape-rendering="crispEdges"/><rect fill="#171008" x="24.4" y="953.1" width="195.2" height="24.65" shape-rendering="crispEdges"/><rect fill="#0a0700" x="219.6" y="953.1" width="24.4" height="24.65" shape-rendering="crispEdges"/><rect fill="#feb000" x="244" y="953.1" width="195.2" height="24.65" shape-rendering="crispEdges"/><rect fill="#0a0700" x="439.2" y="953.1" width="1366.4" height="24.65" shape-rendering="crispEdges"/><rect fill="#0a0700" x="1805.6" y="953.1" width="24.4" height="24.65" shape-rendering="crispEdges"/><rect fill="#0a0700" x="0" y="977.5" width="1830" height="24.65" shape-rendering="crispEdges"/><rect fill="#feb000" x="0" y="1001.9" width="122" height="24.65" shape-rendering="crispEdges"/><rect fill="#feb000" x="122" y="1001.9" width="1561.6" height="24.65" shape-rendering="crispEdges"/><rect fill="#feb000" x="1683.6" y="1001.9" width="146.4" height="24.65" shape-rendering="crispEdges"/>
    <g class="terminal-243272454-matrix">
    <text class="terminal-243272454-r2" x="12.2" y="20" textLength="256.2" clip-path="url(#terminal-243272454-line-0)">GRADIENTQL&#160;&#160;&#160;settings</text><text class="terminal-243272454-r1" x="1830" y="20" textLength="12.2" clip-path="url(#terminal-243272454-line-0)">
</text><text class="terminal-243272454-r1" x="1830" y="44.4" textLength="12.2" clip-path="url(#terminal-243272454-line-1)">
</text><text class="terminal-243272454-r3" x="24.4" y="68.8" textLength="122" clip-path="url(#terminal-243272454-line-2)">target&#160;url</text><text class="terminal-243272454-r1" x="1830" y="68.8" textLength="12.2" clip-path="url(#terminal-243272454-line-2)">
</text><text class="terminal-243272454-r4" x="24.4" y="93.2" textLength="12.2" clip-path="url(#terminal-243272454-line-3)">▊</text><text class="terminal-243272454-r5" x="36.6" y="93.2" textLength="1732.4" clip-path="url(#terminal-243272454-line-3)">▔▔▔▔▔▔▔▔▔▔▔▔▔▔▔▔▔▔▔▔▔▔▔▔▔▔▔▔▔▔▔▔▔▔▔▔▔▔▔▔▔▔▔▔▔▔▔▔▔▔▔▔▔▔▔▔▔▔▔▔▔▔▔▔▔▔▔▔▔▔▔▔▔▔▔▔▔▔▔▔▔▔▔▔▔▔▔▔▔▔▔▔▔▔▔▔▔▔▔▔▔▔▔▔▔▔▔▔▔▔▔▔▔▔▔▔▔▔▔▔▔▔▔▔▔▔▔▔▔▔▔▔▔▔▔▔▔▔▔▔▔▔</text><text class="terminal-243272454-r5" x="1769" y="93.2" textLength="12.2" clip-path="url(#terminal-243272454-line-3)">▎</text><text class="terminal-243272454-r1" x="1830" y="93.2" textLength="12.2" clip-path="url(#terminal-243272454-line-3)">
</text><text class="terminal-243272454-r4" x="24.4" y="117.6" textLength="12.2" clip-path="url(#terminal-243272454-line-4)">▊</text><text class="terminal-243272454-r6" x="61" y="117.6" textLength="390.4" clip-path="url(#terminal-243272454-line-4)">https://api.example.shop/graphql</text><text class="terminal-243272454-r5" x="1769" y="117.6" textLength="12.2" clip-path="url(#terminal-243272454-line-4)">▎</text><text class="terminal-243272454-r1" x="1830" y="117.6" textLength="12.2" clip-path="url(#terminal-243272454-line-4)">
</text><text class="terminal-243272454-r4" x="24.4" y="142" textLength="12.2" clip-path="url(#terminal-243272454-line-5)">▊</text><text class="terminal-243272454-r5" x="36.6" y="142" textLength="1732.4" clip-path="url(#terminal-243272454-line-5)">▁▁▁▁▁▁▁▁▁▁▁▁▁▁▁▁▁▁▁▁▁▁▁▁▁▁▁▁▁▁▁▁▁▁▁▁▁▁▁▁▁▁▁▁▁▁▁▁▁▁▁▁▁▁▁▁▁▁▁▁▁▁▁▁▁▁▁▁▁▁▁▁▁▁▁▁▁▁▁▁▁▁▁▁▁▁▁▁▁▁▁▁▁▁▁▁▁▁▁▁▁▁▁▁▁▁▁▁▁▁▁▁▁▁▁▁▁▁▁▁▁▁▁▁▁▁▁▁▁▁▁▁▁▁▁▁▁▁▁▁▁▁</text><text class="terminal-243272454-r5" x="1769" y="142" textLength="12.2" clip-path="url(#terminal-243272454-line-5)">▎</text><text class="terminal-243272454-r1" x="1830" y="142" textLength="12.2" clip-path="url(#terminal-243272454-line-5)">
</text><text class="terminal-243272454-r1" x="1830" y="166.4" textLength="12.2" clip-path="url(#terminal-243272454-line-6)">
</text><text class="terminal-243272454-r3" x="24.4" y="190.8" textLength="170.8" clip-path="url(#terminal-243272454-line-7)">budget&#160;(steps)</text><text class="terminal-243272454-r1" x="1830" y="190.8" textLength="12.2" clip-path="url(#terminal-243272454-line-7)">
</text><text class="terminal-243272454-r4" x="24.4" y="215.2" textLength="12.2" clip-path="url(#terminal-243272454-line-8)">▊</text><text class="terminal-243272454-r5" x="36.6" y="215.2" textLength="1732.4" clip-path="url(#terminal-243272454-line-8)">▔▔▔▔▔▔▔▔▔▔▔▔▔▔▔▔▔▔▔▔▔▔▔▔▔▔▔▔▔▔▔▔▔▔▔▔▔▔▔▔▔▔▔▔▔▔▔▔▔▔▔▔▔▔▔▔▔▔▔▔▔▔▔▔▔▔▔▔▔▔▔▔▔▔▔▔▔▔▔▔▔▔▔▔▔▔▔▔▔▔▔▔▔▔▔▔▔▔▔▔▔▔▔▔▔▔▔▔▔▔▔▔▔▔▔▔▔▔▔▔▔▔▔▔▔▔▔▔▔▔▔▔▔▔▔▔▔▔▔▔▔▔</text><text class="terminal-243272454-r5" x="1769" y="215.2" textLength="12.2" clip-path="url(#terminal-243272454-line-8)">▎</text><text class="terminal-243272454-r1" x="1830" y="215.2" textLength="12.2" clip-path="url(#terminal-243272454-line-8)">
</text><text class="terminal-243272454-r4" x="24.4" y="239.6" textLength="12.2" clip-path="url(#terminal-243272454-line-9)">▊</text><text class="terminal-243272454-r6" x="61" y="239.6" textLength="24.4" clip-path="url(#terminal-243272454-line-9)">60</text><text class="terminal-243272454-r5" x="1769" y="239.6" textLength="12.2" clip-path="url(#terminal-243272454-line-9)">▎</text><text class="terminal-243272454-r1" x="1830" y="239.6" textLength="12.2" clip-path="url(#terminal-243272454-line-9)">
</text><text class="terminal-243272454-r4" x="24.4" y="264" textLength="12.2" clip-path="url(#terminal-243272454-line-10)">▊</text><text class="terminal-243272454-r5" x="36.6" y="264" textLength="1732.4" clip-path="url(#terminal-243272454-line-10)">▁▁▁▁▁▁▁▁▁▁▁▁▁▁▁▁▁▁▁▁▁▁▁▁▁▁▁▁▁▁▁▁▁▁▁▁▁▁▁▁▁▁▁▁▁▁▁▁▁▁▁▁▁▁▁▁▁▁▁▁▁▁▁▁▁▁▁▁▁▁▁▁▁▁▁▁▁▁▁▁▁▁▁▁▁▁▁▁▁▁▁▁▁▁▁▁▁▁▁▁▁▁▁▁▁▁▁▁▁▁▁▁▁▁▁▁▁▁▁▁▁▁▁▁▁▁▁▁▁▁▁▁▁▁▁▁▁▁▁▁▁▁</text><text class="terminal-243272454-r5" x="1769" y="264" textLength="12.2" clip-path="url(#terminal-243272454-line-10)">▎</text><text class="terminal-243272454-r1" x="1830" y="264" textLength="12.2" clip-path="url(#terminal-243272454-line-10)">
</text><text class="terminal-243272454-r1" x="1830" y="288.4" textLength="12.2" clip-path="url(#terminal-243272454-line-11)">
</text><text class="terminal-243272454-r3" x="24.4" y="312.8" textLength="61" clip-path="url(#terminal-243272454-line-12)">model</text><text class="terminal-243272454-r1" x="1830" y="312.8" textLength="12.2" clip-path="url(#terminal-243272454-line-12)">
</text><text class="terminal-243272454-r4" x="24.4" y="337.2" textLength="12.2" clip-path="url(#terminal-243272454-line-13)">▊</text><text class="terminal-243272454-r5" x="36.6" y="337.2" textLength="1732.4" clip-path="url(#terminal-243272454-line-13)">▔▔▔▔▔▔▔▔▔▔▔▔▔▔▔▔▔▔▔▔▔▔▔▔▔▔▔▔▔▔▔▔▔▔▔▔▔▔▔▔▔▔▔▔▔▔▔▔▔▔▔▔▔▔▔▔▔▔▔▔▔▔▔▔▔▔▔▔▔▔▔▔▔▔▔▔▔▔▔▔▔▔▔▔▔▔▔▔▔▔▔▔▔▔▔▔▔▔▔▔▔▔▔▔▔▔▔▔▔▔▔▔▔▔▔▔▔▔▔▔▔▔▔▔▔▔▔▔▔▔▔▔▔▔▔▔▔▔▔▔▔▔</text><text class="terminal-243272454-r5" x="1769" y="337.2" textLength="12.2" clip-path="url(#terminal-243272454-line-13)">▎</text><text class="terminal-243272454-r1" x="1830" y="337.2" textLength="12.2" clip-path="url(#terminal-243272454-line-13)">
</text><text class="terminal-243272454-r4" x="24.4" y="361.6" textLength="12.2" clip-path="url(#terminal-243272454-line-14)">▊</text><text class="terminal-243272454-r6" x="61" y="361.6" textLength="195.2" clip-path="url(#terminal-243272454-line-14)">qwen/qwen3.7-max</text><text class="terminal-243272454-r5" x="1769" y="361.6" textLength="12.2" clip-path="url(#terminal-243272454-line-14)">▎</text><text class="terminal-243272454-r1" x="1830" y="361.6" textLength="12.2" clip-path="url(#terminal-243272454-line-14)">
</text><text class="terminal-243272454-r4" x="24.4" y="386" textLength="12.2" clip-path="url(#terminal-243272454-line-15)">▊</text><text class="terminal-243272454-r5" x="36.6" y="386" textLength="1732.4" clip-path="url(#terminal-243272454-line-15)">▁▁▁▁▁▁▁▁▁▁▁▁▁▁▁▁▁▁▁▁▁▁▁▁▁▁▁▁▁▁▁▁▁▁▁▁▁▁▁▁▁▁▁▁▁▁▁▁▁▁▁▁▁▁▁▁▁▁▁▁▁▁▁▁▁▁▁▁▁▁▁▁▁▁▁▁▁▁▁▁▁▁▁▁▁▁▁▁▁▁▁▁▁▁▁▁▁▁▁▁▁▁▁▁▁▁▁▁▁▁▁▁▁▁▁▁▁▁▁▁▁▁▁▁▁▁▁▁▁▁▁▁▁▁▁▁▁▁▁▁▁▁</text><text class="terminal-243272454-r5" x="1769" y="386" textLength="12.2" clip-path="url(#terminal-243272454-line-15)">▎</text><text class="terminal-243272454-r1" x="1830" y="386" textLength="12.2" clip-path="url(#terminal-243272454-line-15)">
</text><text class="terminal-243272454-r1" x="1830" y="410.4" textLength="12.2" clip-path="url(#terminal-243272454-line-16)">
</text><text class="terminal-243272454-r3" x="24.4" y="434.8" textLength="292.8" clip-path="url(#terminal-243272454-line-17)">proxy&#160;(http://host:port)</text><text class="terminal-243272454-r1" x="1830" y="434.8" textLength="12.2" clip-path="url(#terminal-243272454-line-17)">
</text><text class="terminal-243272454-r4" x="24.4" y="459.2" textLength="12.2" clip-path="url(#terminal-243272454-line-18)">▊</text><text class="terminal-243272454-r5" x="36.6" y="459.2" textLength="1732.4" clip-path="url(#terminal-243272454-line-18)">▔▔▔▔▔▔▔▔▔▔▔▔▔▔▔▔▔▔▔▔▔▔▔▔▔▔▔▔▔▔▔▔▔▔▔▔▔▔▔▔▔▔▔▔▔▔▔▔▔▔▔▔▔▔▔▔▔▔▔▔▔▔▔▔▔▔▔▔▔▔▔▔▔▔▔▔▔▔▔▔▔▔▔▔▔▔▔▔▔▔▔▔▔▔▔▔▔▔▔▔▔▔▔▔▔▔▔▔▔▔▔▔▔▔▔▔▔▔▔▔▔▔▔▔▔▔▔▔▔▔▔▔▔▔▔▔▔▔▔▔▔▔</text><text class="terminal-243272454-r5" x="1769" y="459.2" textLength="12.2" clip-path="url(#terminal-243272454-line-18)">▎</text><text class="terminal-243272454-r1" x="1830" y="459.2" textLength="12.2" clip-path="url(#terminal-243272454-line-18)">
</text><text class="terminal-243272454-r4" x="24.4" y="483.6" textLength="12.2" clip-path="url(#terminal-243272454-line-19)">▊</text><text class="terminal-243272454-r5" x="1769" y="483.6" textLength="12.2" clip-path="url(#terminal-243272454-line-19)">▎</text><text class="terminal-243272454-r1" x="1830" y="483.6" textLength="12.2" clip-path="url(#terminal-243272454-line-19)">
</text><text class="terminal-243272454-r4" x="24.4" y="508" textLength="12.2" clip-path="url(#terminal-243272454-line-20)">▊</text><text class="terminal-243272454-r5" x="36.6" y="508" textLength="1732.4" clip-path="url(#terminal-243272454-line-20)">▁▁▁▁▁▁▁▁▁▁▁▁▁▁▁▁▁▁▁▁▁▁▁▁▁▁▁▁▁▁▁▁▁▁▁▁▁▁▁▁▁▁▁▁▁▁▁▁▁▁▁▁▁▁▁▁▁▁▁▁▁▁▁▁▁▁▁▁▁▁▁▁▁▁▁▁▁▁▁▁▁▁▁▁▁▁▁▁▁▁▁▁▁▁▁▁▁▁▁▁▁▁▁▁▁▁▁▁▁▁▁▁▁▁▁▁▁▁▁▁▁▁▁▁▁▁▁▁▁▁▁▁▁▁▁▁▁▁▁▁▁▁</text><text class="terminal-243272454-r5" x="1769" y="508" textLength="12.2" clip-path="url(#terminal-243272454-line-20)">▎</text><text class="terminal-243272454-r1" x="1830" y="508" textLength="12.2" clip-path="url(#terminal-243272454-line-20)">
</text><text class="terminal-243272454-r1" x="1830" y="532.4" textLength="12.2" clip-path="url(#terminal-243272454-line-21)">
</text><text class="terminal-243272454-r3" x="24.4" y="556.8" textLength="207.4" clip-path="url(#terminal-243272454-line-22)">request&#160;delay&#160;(s)</text><text class="terminal-243272454-r1" x="1830" y="556.8" textLength="12.2" clip-path="url(#terminal-243272454-line-22)">
</text><text class="terminal-243272454-r4" x="24.4" y="581.2" textLength="12.2" clip-path="url(#terminal-243272454-line-23)">▊</text><text class="terminal-243272454-r5" x="36.6" y="581.2" textLength="1732.4" clip-path="url(#terminal-243272454-line-23)">▔▔▔▔▔▔▔▔▔▔▔▔▔▔▔▔▔▔▔▔▔▔▔▔▔▔▔▔▔▔▔▔▔▔▔▔▔▔▔▔▔▔▔▔▔▔▔▔▔▔▔▔▔▔▔▔▔▔▔▔▔▔▔▔▔▔▔▔▔▔▔▔▔▔▔▔▔▔▔▔▔▔▔▔▔▔▔▔▔▔▔▔▔▔▔▔▔▔▔▔▔▔▔▔▔▔▔▔▔▔▔▔▔▔▔▔▔▔▔▔▔▔▔▔▔▔▔▔▔▔▔▔▔▔▔▔▔▔▔▔▔▔</text><text class="terminal-243272454-r5" x="1769" y="581.2" textLength="12.2" clip-path="url(#terminal-243272454-line-23)">▎</text><text class="terminal-243272454-r1" x="1830" y="581.2" textLength="12.2" clip-path="url(#terminal-243272454-line-23)">
</text><text class="terminal-243272454-r4" x="24.4" y="605.6" textLength="12.2" clip-path="url(#terminal-243272454-line-24)">▊</text><text class="terminal-243272454-r5" x="1769" y="605.6" textLength="12.2" clip-path="url(#terminal-243272454-line-24)">▎</text><text class="terminal-243272454-r1" x="1830" y="605.6" textLength="12.2" clip-path="url(#terminal-243272454-line-24)">
</text><text class="terminal-243272454-r4" x="24.4" y="630" textLength="12.2" clip-path="url(#terminal-243272454-line-25)">▊</text><text class="terminal-243272454-r5" x="36.6" y="630" textLength="1732.4" clip-path="url(#terminal-243272454-line-25)">▁▁▁▁▁▁▁▁▁▁▁▁▁▁▁▁▁▁▁▁▁▁▁▁▁▁▁▁▁▁▁▁▁▁▁▁▁▁▁▁▁▁▁▁▁▁▁▁▁▁▁▁▁▁▁▁▁▁▁▁▁▁▁▁▁▁▁▁▁▁▁▁▁▁▁▁▁▁▁▁▁▁▁▁▁▁▁▁▁▁▁▁▁▁▁▁▁▁▁▁▁▁▁▁▁▁▁▁▁▁▁▁▁▁▁▁▁▁▁▁▁▁▁▁▁▁▁▁▁▁▁▁▁▁▁▁▁▁▁▁▁▁</text><text class="terminal-243272454-r5" x="1769" y="630" textLength="12.2" clip-path="url(#terminal-243272454-line-25)">▎</text><text class="terminal-243272454-r1" x="1830" y="630" textLength="12.2" clip-path="url(#terminal-243272454-line-25)">
</text><text class="terminal-243272454-r1" x="1830" y="654.4" textLength="12.2" clip-path="url(#terminal-243272454-line-26)">
</text><text class="terminal-243272454-r3" x="24.4" y="678.8" textLength="231.8" clip-path="url(#terminal-243272454-line-27)">request&#160;timeout&#160;(s)</text><text class="terminal-243272454-r1" x="1830" y="678.8" textLength="12.2" clip-path="url(#terminal-243272454-line-27)">
</text><text class="terminal-243272454-r4" x="24.4" y="703.2" textLength="12.2" clip-path="url(#terminal-243272454-line-28)">▊</text><text class="terminal-243272454-r5" x="36.6" y="703.2" textLength="1732.4" clip-path="url(#terminal-243272454-line-28)">▔▔▔▔▔▔▔▔▔▔▔▔▔▔▔▔▔▔▔▔▔▔▔▔▔▔▔▔▔▔▔▔▔▔▔▔▔▔▔▔▔▔▔▔▔▔▔▔▔▔▔▔▔▔▔▔▔▔▔▔▔▔▔▔▔▔▔▔▔▔▔▔▔▔▔▔▔▔▔▔▔▔▔▔▔▔▔▔▔▔▔▔▔▔▔▔▔▔▔▔▔▔▔▔▔▔▔▔▔▔▔▔▔▔▔▔▔▔▔▔▔▔▔▔▔▔▔▔▔▔▔▔▔▔▔▔▔▔▔▔▔▔</text><text class="terminal-243272454-r5" x="1769" y="703.2" textLength="12.2" clip-path="url(#terminal-243272454-line-28)">▎</text><text class="terminal-243272454-r7" x="1781.2" y="703.2" textLength="24.4" clip-path="url(#terminal-243272454-line-28)">▃▃</text><text class="terminal-243272454-r1" x="1830" y="703.2" textLength="12.2" clip-path="url(#terminal-243272454-line-28)">
</text><text class="terminal-243272454-r4" x="24.4" y="727.6" textLength="12.2" clip-path="url(#terminal-243272454-line-29)">▊</text><text class="terminal-243272454-r5" x="1769" y="727.6" textLength="12.2" clip-path="url(#terminal-243272454-line-29)">▎</text><text class="terminal-243272454-r1" x="1830" y="727.6" textLength="12.2" clip-path="url(#terminal-243272454-line-29)">
</text><text class="terminal-243272454-r4" x="24.4" y="752" textLength="12.2" clip-path="url(#terminal-243272454-line-30)">▊</text><text class="terminal-243272454-r5" x="36.6" y="752" textLength="1732.4" clip-path="url(#terminal-243272454-line-30)">▁▁▁▁▁▁▁▁▁▁▁▁▁▁▁▁▁▁▁▁▁▁▁▁▁▁▁▁▁▁▁▁▁▁▁▁▁▁▁▁▁▁▁▁▁▁▁▁▁▁▁▁▁▁▁▁▁▁▁▁▁▁▁▁▁▁▁▁▁▁▁▁▁▁▁▁▁▁▁▁▁▁▁▁▁▁▁▁▁▁▁▁▁▁▁▁▁▁▁▁▁▁▁▁▁▁▁▁▁▁▁▁▁▁▁▁▁▁▁▁▁▁▁▁▁▁▁▁▁▁▁▁▁▁▁▁▁▁▁▁▁▁</text><text class="terminal-243272454-r5" x="1769" y="752" textLength="12.2" clip-path="url(#terminal-243272454-line-30)">▎</text><text class="terminal-243272454-r1" x="1830" y="752" textLength="12.2" clip-path="url(#terminal-243272454-line-30)">
</text><text class="terminal-243272454-r1" x="1830" y="776.4" textLength="12.2" clip-path="url(#terminal-243272454-line-31)">
</text><text class="terminal-243272454-r3" x="24.4" y="800.8" textLength="207.4" clip-path="url(#terminal-243272454-line-32)">fuzz&#160;max&#160;payloads</text><text class="terminal-243272454-r1" x="1830" y="800.8" textLength="12.2" clip-path="url(#terminal-243272454-line-32)">
</text><text class="terminal-243272454-r4" x="24.4" y="825.2" textLength="12.2" clip-path="url(#terminal-243272454-line-33)">▊</text><text class="terminal-243272454-r5" x="36.6" y="825.2" textLength="1732.4" clip-path="url(#terminal-243272454-line-33)">▔▔▔▔▔▔▔▔▔▔▔▔▔▔▔▔▔▔▔▔▔▔▔▔▔▔▔▔▔▔▔▔▔▔▔▔▔▔▔▔▔▔▔▔▔▔▔▔▔▔▔▔▔▔▔▔▔▔▔▔▔▔▔▔▔▔▔▔▔▔▔▔▔▔▔▔▔▔▔▔▔▔▔▔▔▔▔▔▔▔▔▔▔▔▔▔▔▔▔▔▔▔▔▔▔▔▔▔▔▔▔▔▔▔▔▔▔▔▔▔▔▔▔▔▔▔▔▔▔▔▔▔▔▔▔▔▔▔▔▔▔▔</text><text class="terminal-243272454-r5" x="1769" y="825.2" textLength="12.2" clip-path="url(#terminal-243272454-line-33)">▎</text><text class="terminal-243272454-r1" x="1830" y="825.2" textLength="12.2" clip-path="url(#terminal-243272454-line-33)">
</text><text class="terminal-243272454-r4" x="24.4" y="849.6" textLength="12.2" clip-path="url(#terminal-243272454-line-34)">▊</text><text class="terminal-243272454-r5" x="1769" y="849.6" textLength="12.2" clip-path="url(#terminal-243272454-line-34)">▎</text><text class="terminal-243272454-r1" x="1830" y="849.6" textLength="12.2" clip-path="url(#terminal-243272454-line-34)">
</text><text class="terminal-243272454-r1" x="1830" y="874" textLength="12.2" clip-path="url(#terminal-243272454-line-35)">
</text><text class="terminal-243272454-r1" x="1830" y="898.4" textLength="12.2" clip-path="url(#terminal-243272454-line-36)">
</text><text class="terminal-243272454-r8" x="24.4" y="922.8" textLength="195.2" clip-path="url(#terminal-243272454-line-37)">▔▔▔▔▔▔▔▔▔▔▔▔▔▔▔▔</text><text class="terminal-243272454-r9" x="244" y="922.8" textLength="195.2" clip-path="url(#terminal-243272454-line-37)">▔▔▔▔▔▔▔▔▔▔▔▔▔▔▔▔</text><text class="terminal-243272454-r1" x="1830" y="922.8" textLength="12.2" clip-path="url(#terminal-243272454-line-37)">
</text><text class="terminal-243272454-r10" x="61" y="947.2" textLength="109.8" clip-path="url(#terminal-243272454-line-38)">&#160;Attacks&#160;</text><text class="terminal-243272454-r11" x="305" y="947.2" textLength="73.2" clip-path="url(#terminal-243272454-line-38)">&#160;Back&#160;</text><text class="terminal-243272454-r1" x="1830" y="947.2" textLength="12.2" clip-path="url(#terminal-243272454-line-38)">
</text><text class="terminal-243272454-r7" x="24.4" y="971.6" textLength="195.2" clip-path="url(#terminal-243272454-line-39)">▁▁▁▁▁▁▁▁▁▁▁▁▁▁▁▁</text><text class="terminal-243272454-r12" x="244" y="971.6" textLength="195.2" clip-path="url(#terminal-243272454-line-39)">▁▁▁▁▁▁▁▁▁▁▁▁▁▁▁▁</text><text class="terminal-243272454-r1" x="1830" y="971.6" textLength="12.2" clip-path="url(#terminal-243272454-line-39)">
</text><text class="terminal-243272454-r1" x="1830" y="996" textLength="12.2" clip-path="url(#terminal-243272454-line-40)">
</text>
    </g>
    </g>
</svg>
